<svg xmlns="http://www.w3.org/2000/svg" viewBox="0 0 242.82 150.65"><defs><style>.cls-1{fill:#6cb5e5;}.cls-2,.cls-3{fill:#fff;}.cls-3{stroke:#fff;stroke-miterlimit:10;}</style></defs><g id="Capa_2" data-name="Capa 2"><g id="Capa_1-2" data-name="Capa 1"><path class="cls-1" d="M91.81,101.5h5.34A28.73,28.73,0,0,0,107.7,95.2c6.4-5.72,5.37-18.67,5.58-31H130c.59,9.25-2.37,20.67,3.76,29,2.34,3.2,7.74,6.33,12.23,8.7h4.22c-.83-3-7.63-4.9-13.35-10.09-5.91-5.36-3-22.07-3.58-27.77l12.8.14V61.11H97.69v2.61h12.06a145.36,145.36,0,0,1-1,20.24C107.56,94.54,93.74,98.9,91.81,101.5Z"/><path class="cls-1" d="M141.3,61.47h3.13V50.72a4.61,4.61,0,0,0,3.57.46,3.92,3.92,0,0,0,.94-.46l-24.8-21a3.35,3.35,0,0,0-1.73-.46,3.44,3.44,0,0,0-1.72.46L96.59,50.56a2.26,2.26,0,0,0,1,.72,2.79,2.79,0,0,0,2.87-.83V62.37H104V48.45l16.56-14.89a2.12,2.12,0,0,1,1.75-.63,2.06,2.06,0,0,1,1.22.7L141.3,49.5Z"/><path class="cls-2" d="M163.83,29.42l-.26-.22C163.7,29.22,163.81,29.26,163.83,29.42Z"/><path class="cls-2" d="M75.82,59v.78a.94.94,0,0,1-.57-.6Z"/><path class="cls-2" d="M75.25,59.22a.27.27,0,0,1-.2-.41A.35.35,0,0,1,75.25,59.22Z"/><path class="cls-2" d="M83.45,31.08l6.49,2.56s0,.06-.06.35c-.27.7-.27.71-.39.66Q83,32.1,76.58,29.57s0-.1.07-.37.19-.57.25-.65.09,0,.13,0Z"/><path class="cls-2" d="M92.79,25.49l3.43-6.24c0-.05.07,0,.33.12.63.38.64.37.57.49L90.28,32.27s-.1,0-.34-.13-.52-.29-.59-.35,0-.09,0-.13C90.52,29.6,91.65,27.54,92.79,25.49Z"/><path class="cls-2" d="M97.48,39.23l6.17,5.19s0,.08-.16.32c-.47.58-.46.59-.58.49L90.64,34.9s0-.11.17-.33.36-.49.44-.54.1,0,.13.06Z"/><path class="cls-2" d="M87.51,44c-.65,2.66-1.3,5.31-1.94,8,0,.06-.06.06-.35,0-.71-.19-.71-.19-.67-.34q1.94-7.93,3.86-15.86c0-.06.1-.06.36,0a5.1,5.1,0,0,1,.66.18c.11.06,0,.1,0,.15Q88.47,40.09,87.51,44Z"/><path class="cls-2" d="M100.06,29.83l-9.27,3.68c-.06,0-.1,0-.2-.29-.25-.69-.25-.69-.08-.76l18.43-7.32c.08,0,.12,0,.21.3a6,6,0,0,1,.23.65c0,.13-.1.08-.15.1Z"/><path class="cls-2" d="M80,46.86l4.63,4.53s0,.07-.2.29c-.51.55-.5.55-.59.47q-4.6-4.51-9.21-9s0-.1.21-.31a6.41,6.41,0,0,1,.47-.5c.1-.08.08,0,.11,0Z"/><path class="cls-2" d="M91.2,50.77l6.28-1.16s.07,0,.12.34c.12.75.12.75,0,.77L85.12,53c-.05,0-.08-.07-.12-.35a5.91,5.91,0,0,1-.11-.7c0-.13.06-.05.1-.06Z"/><path class="cls-2" d="M79.35,55.86c1.75-1.25,3.49-2.5,5.23-3.77,0,0,.08,0,.24.26.42.63.42.63.32.7q-5.2,3.73-10.41,7.49s-.09,0-.24-.27-.35-.5-.39-.58,0-.08.07-.1Z"/><path class="cls-2" d="M88.19,60.7q-1.6-3.62-3.22-7.25c0-.05,0-.08.28-.21.67-.31.67-.31.73-.17l6.39,14.42c0,.06,0,.1-.29.21s-.53.27-.62.29-.08-.07-.1-.11C90.3,65.49,89.25,63.1,88.19,60.7Z"/><path class="cls-2" d="M96.69,60.24l3.45-7.13s.07,0,.33.09c.66.35.66.35.59.48q-3.44,7.09-6.86,14.19s-.1,0-.35-.1-.53-.26-.6-.32,0-.11,0-.15Z"/><path class="cls-2" d="M102.33,66.1l7.46-2s.08,0,.15.32c.18.73.19.73,0,.77L95.15,69.23c-.05,0-.09-.06-.15-.34s-.17-.59-.17-.68.08-.07.12-.08Z"/><path class="cls-2" d="M84.33,67l7.5,1.87c.06,0,.06.07,0,.37-.18.73-.18.73-.32.7Q84,68,76.58,66.16s0-.09,0-.37.13-.6.17-.68.1,0,.15,0Z"/><path class="cls-2" d="M98.12,76.31q2.32,3.18,4.66,6.35s0,.09-.23.27c-.59.46-.59.46-.67.34q-4.63-6.33-9.28-12.64s0-.11.25-.28.46-.38.54-.42.09,0,.12.09C95,72.12,96.58,74.21,98.12,76.31Z"/><path class="cls-2" d="M158.37,31.08l-6.49,2.56s0,.06.06.35c.27.7.27.71.39.66q6.45-2.55,12.91-5.08s0-.1-.07-.37-.19-.57-.24-.65-.09,0-.14,0Z"/><path class="cls-2" d="M149,25.49l-3.43-6.24c0-.05-.07,0-.33.12-.63.38-.63.37-.57.49l6.84,12.41s.1,0,.34-.13.52-.29.59-.35,0-.09,0-.13C151.3,29.6,150.17,27.54,149,25.49Z"/><path class="cls-2" d="M144.34,39.23l-6.17,5.19s0,.08.16.32c.47.58.46.59.58.49L151.18,34.9s0-.11-.17-.33a5.67,5.67,0,0,0-.44-.54c-.1-.08-.1,0-.13.06Z"/><path class="cls-2" d="M154.31,44c.65,2.66,1.3,5.31,1.94,8,0,.06.06.06.35,0,.71-.19.71-.19.67-.34q-1.94-7.93-3.86-15.86c0-.06-.1-.06-.36,0a5.1,5.1,0,0,0-.66.18c-.11.06,0,.1,0,.15Q153.36,40.09,154.31,44Z"/><path class="cls-2" d="M141.76,29.83,151,33.51c.06,0,.1,0,.2-.29.25-.69.25-.69.08-.76l-18.43-7.32c-.08,0-.12,0-.21.3a6,6,0,0,0-.23.65c0,.13.1.08.15.1Z"/><path class="cls-2" d="M161.81,46.86l-4.63,4.53s0,.07.2.29c.51.55.5.55.59.47l9.21-9s0-.1-.21-.31a6.41,6.41,0,0,0-.47-.5c-.1-.08-.08,0-.11,0Z"/><path class="cls-2" d="M150.62,50.77l-6.28-1.16c-.05,0-.07,0-.12.34-.12.75-.12.75,0,.77L156.71,53s.07-.07.11-.35a5.91,5.91,0,0,0,.11-.7c0-.13-.06-.05-.1-.06Z"/><path class="cls-2" d="M162.47,55.86c-1.74-1.25-3.49-2.5-5.23-3.77,0,0-.08,0-.24.26-.42.63-.42.63-.32.7q5.2,3.73,10.41,7.49s.09,0,.25-.27.34-.5.38-.58,0-.08-.07-.1Z"/><path class="cls-2" d="M153.63,60.7q1.6-3.62,3.22-7.25c0-.05,0-.08-.28-.21-.67-.31-.67-.31-.73-.17l-6.39,14.42c0,.06,0,.1.29.21s.53.27.62.29.08-.07.1-.11Q152.05,64.29,153.63,60.7Z"/><path class="cls-2" d="M139.49,66.1l-7.46-2c-.05,0-.08,0-.15.32-.18.73-.19.73,0,.77l14.84,4.09c.05,0,.09-.06.15-.34s.17-.59.17-.68-.08-.07-.12-.08Z"/><path class="cls-2" d="M157.49,67,150,68.84c-.06,0-.06.07,0,.37.18.73.18.73.32.7q7.45-1.89,14.92-3.75s0-.09,0-.37-.13-.6-.17-.68-.1,0-.15,0Z"/><path class="cls-2" d="M143.7,76.31q-2.32,3.18-4.66,6.35s0,.09.23.27c.59.46.59.46.68.34q4.62-6.33,9.27-12.64s0-.11-.24-.28-.47-.38-.55-.42-.09,0-.12.09C146.78,72.12,145.24,74.21,143.7,76.31Z"/><path class="cls-2" d="M110.49,31.4l-1.11-5.77s0-.06.32-.12c.7-.14.7-.14.72,0,.74,3.83,1.47,7.66,2.22,11.48,0,0-.07.07-.33.12a6.68,6.68,0,0,1-.66.13c-.12,0-.05-.06-.06-.09C111.23,35.21,110.86,33.31,110.49,31.4Z"/><path class="cls-2" d="M128.53,30.54q1.13-2.7,2.24-5.41s.07,0,.33.09c.66.29.66.29.62.39-1.49,3.59-3,7.18-4.47,10.77,0,0-.09,0-.34-.1s-.54-.22-.61-.27,0-.08,0-.12Q127.43,33.22,128.53,30.54Z"/><path class="cls-2" d="M121.07,16.58l-9.34-8.53c-.06-.06,0-.12.14-.34.49-.55.48-.55.66-.39q9.27,8.49,18.56,17c.07.07,0,.14-.15.35a5.61,5.61,0,0,1-.45.51c-.11.06-.14-.07-.19-.13Z"/><path class="cls-2" d="M119.83,15.5q5.11-4.41,10.22-8.83c.07-.06.12,0,.3.19.45.58.46.57.27.74L110.3,25.16c-.08.07-.15,0-.31-.2a3.86,3.86,0,0,1-.42-.54c0-.13.09-.13.16-.19Z"/><ellipse class="cls-2" cx="92.75" cy="69.21" rx="2.83" ry="2.92"/><ellipse class="cls-2" cx="84.92" cy="52.42" rx="1.44" ry="1.49"/><ellipse class="cls-2" cx="109.7" cy="25.41" rx="1.44" ry="1.49"/><ellipse class="cls-2" cx="152.81" cy="34.1" rx="2.83" ry="2.92"/><ellipse class="cls-2" cx="149.04" cy="69.46" rx="2.83" ry="2.92"/><ellipse class="cls-2" cx="156.87" cy="52.67" rx="1.44" ry="1.49"/><ellipse class="cls-2" cx="131.55" cy="25.11" rx="1.44" ry="1.49"/><ellipse class="cls-2" cx="120.76" cy="15.45" rx="2.83" ry="2.92"/><ellipse class="cls-2" cx="88.98" cy="33.85" rx="2.83" ry="2.92"/><path class="cls-1" d="M106.62,81.71a11.57,11.57,0,0,1-17.84-3.26,1.31,1.31,0,0,0-1.41-.78c-7.14.18-12.91-6.67-11.75-14a1.35,1.35,0,0,0-.64-1.6A12.35,12.35,0,0,1,72.72,43.7,1.26,1.26,0,0,0,72.91,42a11.93,11.93,0,0,1-1.27-6.14c.06-1.12.67-1.83,1.55-1.82s1.52.74,1.47,1.85a10,10,0,0,0,1.46,5.65,2.55,2.55,0,0,1-.47,3.56,9.29,9.29,0,0,0,1.85,15,2.54,2.54,0,0,1,1.26,3.17c-1.33,6.32,3.12,11.69,9.38,11.27a2.89,2.89,0,0,1,3,1.91,8.6,8.6,0,0,0,13.38,3M138,25.16a9.14,9.14,0,0,0,6.38-8.35c.22-6.64-6.07-11.22-12.06-8.79-1.77.71-2.7.48-3.72-.92-3.85-5.29-10.62-5.29-14.49,0a2.5,2.5,0,0,1-3.43,1,8.65,8.65,0,0,0-3.07-.75,9,9,0,0,0-9.21,7.89,9.12,9.12,0,0,0,6.21,9.88l-2.14,2.7c-.11-.38-.46-.37-.7-.51a12,12,0,0,1-6.45-11c0-.81-.22-1.07-1-1.17A8.92,8.92,0,0,0,84.16,24.3c0,2.09-.54,2.81-2.49,3.26a9,9,0,0,0-4.24,2.29c-.87.82-1.77.85-2.39.14s-.52-1.63.34-2.46a11,11,0,0,1,5-2.83c.6-.15.76-.4.78-1A11.91,11.91,0,0,1,95.2,12.17c.56.12.8,0,1-.55,2.64-6.07,8.7-8.79,14.82-6.68a.73.73,0,0,0,1-.27c5.07-6.22,13.48-6.23,18.49,0a.8.8,0,0,0,1.09.27,11.6,11.6,0,0,1,14.75,6.67c.23.53.43.71,1,.6a11.86,11.86,0,0,1,14.08,11.55c0,.62.23.79.76,1a12.23,12.23,0,0,1,7.35,17.51,1,1,0,0,0,.17,1.31,12,12,0,0,1,3.05,6.12c0,.16,0,.35.21.4v4c-.36.16-.27.54-.33.81a11.85,11.85,0,0,1-5.18,7.41,1.08,1.08,0,0,0-.53,1.25c1.07,7.89-4.36,14.26-12.1,14.17-.65,0-.77.4-1,.8a11.59,11.59,0,0,1-18.16,3,9.89,9.89,0,0,1-1.73-2l3.55-.51c.4.34.67.6,1,.82a8.58,8.58,0,0,0,13-3.32,2.89,2.89,0,0,1,3-1.91c6.25.42,10.71-5,9.38-11.26A2.65,2.65,0,0,1,165.31,60c5.51-3.31,6.33-10.16,1.77-14.79a2.75,2.75,0,0,1-.46-3.83c3.23-5.66.5-12.28-5.66-13.77-1.9-.46-2.46-1.19-2.46-3.19,0-5.76-4.55-9.91-10.1-9.21-.73.09-1,.31-1,1.19a12.06,12.06,0,0,1-3.91,9.15,13.05,13.05,0,0,1-3.34,2.22"/><path class="cls-3" d="M20.37,132.91c1.52-2,2.93-3.83,4.33-5.68l9.05-11.94c1.46-1.93,2.9-3.89,4.38-5.79.41-.52.74-1.43,1.56-1s.46,1.19.46,1.84q0,18.87,0,37.74c0,.27,0,.53,0,.8,0,.55-.11,1.15-.7,1.16s-.77-.63-.77-1.25c0-.37,0-.74,0-1.11V111.84c-.46-.21-.56.18-.72.39q-4.68,6.13-9.35,12.29c-2.41,3.17-4.8,6.36-7.23,9.52-.95,1.24-1.12,1.24-2.07,0-3-3.92-6-7.87-9-11.81l-7-9.29a4.57,4.57,0,0,0-.49-.57c-.42-.39-.71-.29-.78.29a13.35,13.35,0,0,0,0,1.42V147.7c0,.47,0,1,0,1.43s-.22.85-.67.87-.72-.41-.78-.92a7,7,0,0,1,0-.79V110.07c0-.26,0-.53,0-.79a.86.86,0,0,1,.5-.87.73.73,0,0,1,.88.31c.66.83,1.3,1.67,1.94,2.51l15.45,20.4C19.59,132,19.93,132.39,20.37,132.91Z"/><path class="cls-3" d="M242.32,149.12a.82.82,0,0,1-.52.9.58.58,0,0,1-.72-.34,16.71,16.71,0,0,1-.68-1.56c-1.16-3.07-2.34-6.12-3.44-9.21a1.73,1.73,0,0,0-1.9-1.37q-8.69.08-17.37,0a1.72,1.72,0,0,0-1.89,1.37c-1.15,3.19-2.38,6.33-3.58,9.49a11.21,11.21,0,0,1-.55,1.28.56.56,0,0,1-.85.27.82.82,0,0,1-.39-.93,4.84,4.84,0,0,1,.25-.73Q218,129.12,225.24,110c.24-.64.32-1.63,1.13-1.63s.87,1,1.12,1.62q4.74,12.47,9.47,24.92l5,13.27C242.13,148.47,242.23,148.82,242.32,149.12ZM217,135.86c2.44.32,17.66.21,18.8-.14l-9.19-24.21h-.38C223.12,119.58,220.07,127.64,217,135.86Z"/><path class="cls-3" d="M143.31,149c0,.54-.12.86-.47,1a.62.62,0,0,1-.82-.43c-.49-1.2-1-2.41-1.42-3.62-.9-2.38-1.83-4.75-2.67-7.15a1.62,1.62,0,0,0-1.79-1.3c-5.83.05-11.66.06-17.49,0-1,0-1.5.42-1.87,1.43-1.19,3.27-2.45,6.51-3.69,9.76a8.8,8.8,0,0,1-.42,1,.58.58,0,0,1-.72.33.74.74,0,0,1-.49-.85,3.58,3.58,0,0,1,.23-.91q3.75-9.9,7.52-19.8l7-18.36a11.26,11.26,0,0,1,.53-1.29c.37-.66,1-.67,1.35,0a4.65,4.65,0,0,1,.37.85l13.29,35.11c.42,1.12.87,2.23,1.3,3.34C143.14,148.46,143.23,148.81,143.31,149Zm-15.94-38c-3.19,8.51-6.37,16.62-9.4,24.88,3,.32,17.69.19,18.78-.17C133.66,127.59,130.58,119.46,127.37,111Z"/><path class="cls-3" d="M158.57,150.13c-3.81-.18-7.23-1.37-9.76-4.79A8.65,8.65,0,0,1,147,140.6a6,6,0,0,1,0-.95.62.62,0,0,1,.55-.62.65.65,0,0,1,.69.43,1.83,1.83,0,0,1,.11.61,8.35,8.35,0,0,0,3.2,6.06,11.5,11.5,0,0,0,14.18-.24,8,8,0,0,0-.4-12.57,22.17,22.17,0,0,0-5-2.51c-2.27-1-4.58-1.91-6.85-2.93a10.52,10.52,0,0,1-5.61-5.26,9.38,9.38,0,0,1,1.17-10,11.62,11.62,0,0,1,6.43-4,12.45,12.45,0,0,1,9.82,1.59,9.85,9.85,0,0,1,4.69,7,7.37,7.37,0,0,1,.09,1.41.71.71,0,0,1-.61.75c-.37,0-.62-.22-.77-.59a1.39,1.39,0,0,1-.09-.45,7.8,7.8,0,0,0-4.24-6.8,11,11,0,0,0-12.61.62,7.92,7.92,0,0,0-.67,12.42A14,14,0,0,0,155,126.8c2.82,1.17,5.64,2.35,8.44,3.59a10.62,10.62,0,0,1,5.9,5.58,9.3,9.3,0,0,1-1.25,9.71,11.64,11.64,0,0,1-7.11,4.18A8.29,8.29,0,0,1,158.57,150.13Z"/><path class="cls-3" d="M73.83,129.18c-.22-9.36,5.91-19,15.72-20.68,5.75-1,10.89.74,15.29,5.08a7.51,7.51,0,0,1,.69.79.79.79,0,0,1,.09,1,.67.67,0,0,1-1,.1,6.15,6.15,0,0,1-.64-.61c-5.09-5-10.93-6.37-17.24-3.88s-10.13,7.8-11.25,15.32C74,136,79.74,146.56,90,148.27a15.29,15.29,0,0,0,13.54-4.37l1-.92c.35-.33.76-.54,1.11-.07s.08.88-.23,1.25a16.08,16.08,0,0,1-3.68,3.18C90.28,154.51,76.08,147,74,132.18,73.85,131.19,73.88,130.18,73.83,129.18Z"/><path class="cls-3" d="M202.7,129.85v18.24a11,11,0,0,1-.08,1.41.49.49,0,0,1-.54.41.48.48,0,0,1-.52-.41,13.82,13.82,0,0,1-.08-1.58V111.61c0-1.74,0-1.74-1.54-1.75-4,0-8,0-12,0a2.84,2.84,0,0,1-1.26-.11.74.74,0,0,1-.5-.84.61.61,0,0,1,.6-.55,8,8,0,0,1,.85,0h28.8c.28,0,.56,0,.85,0a.61.61,0,0,1,.64.66.69.69,0,0,1-.57.78,7.55,7.55,0,0,1-1.26.07h-12c-1.38,0-1.39,0-1.39,1.58Z"/><path class="cls-3" d="M48.75,129.31V148c0,.42,0,.84,0,1.26a.61.61,0,0,1-.5.66c-.39.06-.61-.17-.73-.57a5.54,5.54,0,0,1-.1-1.57q0-14.9,0-29.78c0-2.59,0-5.18,0-7.77,0-.69-.22-1.58.68-1.84.5-.15.67.31.67,1.75Z"/><path class="cls-3" d="M178.68,129.12v19.8c0,.5,0,1-.64,1s-.64-.54-.69-1a10.55,10.55,0,0,1,0-1.26V110.58a5,5,0,0,1,.14-1.73.61.61,0,0,1,.66-.46.59.59,0,0,1,.53.61c0,.42,0,.85,0,1.27Z"/></g></g></svg>