<svg xmlns="http://www.w3.org/2000/svg" viewBox="0 0 338.61 93.69"><defs><style>.cls-1{fill:#fff;}.cls-2{fill:#feffff;}.cls-3{fill:#9c9b9b;}.cls-4{fill:#6cb5e5;}.cls-5{fill:#9f9f9f;}.cls-6{fill:#a3a1a1;}.cls-7{fill:#9d9d9d;}</style></defs><g id="Capa_2" data-name="Capa 2"><g id="Capa_1-2" data-name="Capa 1"><path class="cls-1" d="M83,27l-.23-.21C82.88,26.85,83,26.89,83,27Z"/><path class="cls-2" d="M5.48,54.24V55A.86.86,0,0,1,5,54.4Z"/><path class="cls-2" d="M5,54.41A.25.25,0,0,1,4.8,54,.32.32,0,0,1,5,54.41Z"/><path class="cls-3" d="M12.2,28.56l5.72,2.35s0,.06-.06.32c-.23.65-.23.65-.34.61L6.15,27.17c-.05,0,0-.09.06-.34s.17-.53.22-.6.08,0,.11,0Z"/><path class="cls-3" d="M20.43,23.42q1.52-2.87,3-5.74s.06,0,.29.12c.56.34.56.34.5.45q-3,5.7-6,11.4c0,.05-.09,0-.3-.11s-.46-.27-.52-.33,0-.09,0-.12Z"/><path class="cls-3" d="M24.56,36.05,30,40.82s0,.07-.15.29c-.41.54-.4.54-.51.45l-10.8-9.49c-.05,0,0-.11.15-.31s.31-.44.38-.49.09,0,.12.05Z"/><path class="cls-3" d="M15.78,40.46c-.57,2.44-1.15,4.88-1.71,7.32,0,.06-.06.06-.31,0-.62-.18-.62-.17-.59-.31q1.71-7.29,3.4-14.58c0-.05.09,0,.32,0a4.72,4.72,0,0,1,.58.16c.1.06,0,.09,0,.14C16.91,35.63,16.34,38,15.78,40.46Z"/><path class="cls-3" d="M26.83,27.41l-8.16,3.38c-.06,0-.09,0-.18-.26-.22-.64-.22-.64-.07-.7L34.66,23.1c.06,0,.1,0,.18.28A5.89,5.89,0,0,1,35,24c0,.12-.08.07-.13.1Z"/><path class="cls-3" d="M9.17,43.05c1.36,1.39,2.71,2.78,4.08,4.17,0,0,0,.07-.17.27-.45.5-.45.51-.53.43Q8.5,43.77,4.44,39.63s0-.09.18-.28.35-.42.42-.47.07,0,.1,0C6.48,40.31,7.83,41.68,9.17,43.05Z"/><path class="cls-3" d="M19,46.65l5.53-1.06s.06,0,.1.31c.11.69.11.69,0,.71q-5.51,1-11,2.1s-.06-.07-.1-.32-.11-.55-.1-.64.06,0,.09-.06Z"/><path class="cls-3" d="M8.59,51.33q2.31-1.72,4.61-3.46s.06,0,.21.24c.37.57.37.57.28.63L4.52,55.63s-.08,0-.21-.25A5.79,5.79,0,0,1,4,54.84c-.05-.1,0-.07.06-.09Z"/><path class="cls-3" d="M16.37,55.78Q15,52.45,13.54,49.12s0-.08.25-.2c.59-.28.59-.28.64-.16L20.06,62s0,.09-.26.19-.47.25-.55.27-.06-.07-.08-.11C18.24,60.17,17.31,58,16.37,55.78Z"/><path class="cls-3" d="M23.86,55.36c1-2.19,2-4.37,3-6.56,0,0,.06,0,.3.09.57.31.57.31.52.44q-3,6.51-6,13s-.09,0-.31-.09-.47-.24-.53-.3,0-.09,0-.13Q22.37,58.6,23.86,55.36Z"/><path class="cls-3" d="M28.83,60.74l6.57-1.89c.05,0,.07,0,.14.3.16.67.16.67,0,.71-4.36,1.25-8.72,2.49-13.07,3.75-.05,0-.08-.06-.13-.31s-.15-.54-.15-.63.06-.06.11-.07Z"/><path class="cls-3" d="M13,61.53l6.61,1.73s.05.06,0,.33c-.15.68-.15.68-.28.64L6.16,60.8c-.06,0,0-.09,0-.35s.11-.55.15-.63.09,0,.13,0Z"/><path class="cls-3" d="M25.12,70.12c1.37,1.95,2.73,3.9,4.11,5.84,0,0,0,.08-.21.25-.51.41-.51.41-.59.3L20.26,64.9c0-.05,0-.1.22-.26a4.25,4.25,0,0,1,.48-.38c.1-.05.08,0,.1.08Z"/><path class="cls-3" d="M78.19,28.56l-5.72,2.35s0,.06.06.32c.24.65.23.65.34.61l11.38-4.67s0-.09-.07-.34a5.13,5.13,0,0,0-.22-.6c-.06-.1-.08,0-.11,0Z"/><path class="cls-3" d="M70,23.42l-3-5.74s-.06,0-.29.12c-.55.34-.56.34-.5.45q3,5.7,6,11.4c0,.05.09,0,.3-.11s.46-.27.52-.33,0-.09,0-.12Z"/><path class="cls-3" d="M65.83,36.05,60.4,40.82s0,.07.14.29c.41.54.41.54.51.45l10.81-9.49s0-.11-.15-.31-.32-.44-.39-.49-.08,0-.12.05Z"/><path class="cls-3" d="M74.62,40.46q.85,3.66,1.7,7.32c0,.06.06.06.31,0,.63-.18.63-.17.6-.31q-1.71-7.29-3.41-14.58c0-.05-.08,0-.32,0a4.72,4.72,0,0,0-.58.16c-.1.06,0,.09,0,.14C73.48,35.63,74.05,38,74.62,40.46Z"/><path class="cls-3" d="M63.56,27.41l8.16,3.38c.06,0,.09,0,.18-.26.22-.64.23-.64.07-.7L55.74,23.1c-.07,0-.1,0-.18.28s-.2.5-.21.59.09.07.14.1Z"/><path class="cls-3" d="M81.22,43.05l-4.07,4.17s0,.07.17.27c.44.5.44.51.52.43q4.05-4.16,8.11-8.29s0-.09-.18-.28-.35-.42-.42-.47-.07,0-.1,0Q83.24,41,81.22,43.05Z"/><path class="cls-3" d="M71.36,46.65l-5.53-1.06s-.06,0-.1.31c-.11.69-.11.69,0,.71q5.5,1,11,2.1s.07-.07.11-.32.1-.55.1-.64-.06,0-.1-.06Z"/><path class="cls-3" d="M81.8,51.33l-4.61-3.46s-.06,0-.21.24c-.36.57-.37.57-.28.63l9.17,6.89s.08,0,.22-.25.3-.45.34-.54,0-.07-.07-.09Z"/><path class="cls-3" d="M74,55.78q1.41-3.33,2.83-6.66s0-.08-.25-.2c-.59-.28-.58-.28-.64-.16Q73.16,55.39,70.33,62s0,.09.26.19.47.25.55.27.06-.07.08-.11C72.15,60.17,73.09,58,74,55.78Z"/><path class="cls-3" d="M61.56,60.74,55,58.85s-.07,0-.13.3c-.16.67-.17.67,0,.71,4.35,1.25,8.71,2.49,13.06,3.75.05,0,.08-.06.14-.31s.15-.54.15-.63-.07-.06-.11-.07Z"/><path class="cls-3" d="M77.41,61.53l-6.6,1.73s0,.06,0,.33c.16.68.16.68.28.64L84.24,60.8c.05,0,0-.09,0-.35s-.11-.55-.15-.63-.08,0-.12,0Z"/><path class="cls-3" d="M65.27,70.12Q63.23,73,61.16,76s0,.08.21.25c.52.41.51.41.59.3L70.13,64.9c0-.05,0-.1-.21-.26a5.24,5.24,0,0,0-.49-.38c-.1-.05-.07,0-.1.08Z"/><path class="cls-3" d="M36,28.86q-.48-2.66-1-5.31s0-.05.28-.11c.62-.13.62-.13.64,0,.65,3.52,1.29,7,1.95,10.56,0,0-.06.06-.29.11s-.5.11-.58.12,0-.06,0-.09Q36.51,31.49,36,28.86Z"/><path class="cls-3" d="M51.91,28.06q1-2.47,2-5s.06,0,.29.08c.58.27.58.27.55.37q-2,4.93-3.94,9.89s-.08,0-.3-.09-.47-.21-.54-.26,0-.07,0-.1Q50.93,30.52,51.91,28.06Z"/><path class="cls-3" d="M45.34,15.24,37.11,7.39s0-.1.13-.3c.42-.51.42-.51.57-.36l16.35,15.6c.07.06,0,.13-.13.32a4.85,4.85,0,0,1-.4.47c-.1.05-.12-.07-.17-.12Z"/><path class="cls-3" d="M44.25,14.25l9-8.12c.07-.06.11,0,.27.17.4.53.41.53.24.68q-9,8.07-17.9,16.14c-.07.06-.13,0-.27-.19a3.1,3.1,0,0,1-.37-.49c0-.12.08-.12.14-.17Q39.79,18.25,44.25,14.25Z"/><path class="cls-4" d="M19.56,93.27h4.71a25,25,0,0,0,9.29-5.79C39.2,82.22,38.29,70.32,38.47,59H53.23c.52,8.5-2.09,19,3.31,26.66,2.07,2.94,6.81,5.82,10.78,8H71c-.73-2.75-6.72-4.5-11.76-9.27-5.2-4.93-2.67-20.28-3.16-25.52L67.4,59V56.15H24.74v2.4H35.36a138,138,0,0,1-.87,18.6C33.44,86.87,21.26,90.87,19.56,93.27Z"/><path class="cls-4" d="M63.16,56.49h2.76V46.6a3.86,3.86,0,0,0,3.13.43,3.3,3.3,0,0,0,.84-.43L48,27.29a2.9,2.9,0,0,0-3,0L23.77,46.46a2.17,2.17,0,0,0,.86.66,2.38,2.38,0,0,0,2.52-.76v11h3.17V44.52l14.6-13.69a1.68,1.68,0,0,1,2.61.07L63.16,45.48Z"/><ellipse class="cls-3" cx="20.39" cy="63.59" rx="2.49" ry="2.69"/><ellipse class="cls-3" cx="13.5" cy="48.17" rx="1.27" ry="1.37"/><ellipse class="cls-3" cx="35.33" cy="23.35" rx="1.27" ry="1.37"/><ellipse class="cls-3" cx="73.3" cy="31.34" rx="2.49" ry="2.69"/><ellipse class="cls-3" cx="69.97" cy="63.83" rx="2.49" ry="2.69"/><ellipse class="cls-3" cx="76.87" cy="48.4" rx="1.27" ry="1.37"/><ellipse class="cls-3" cx="54.57" cy="23.07" rx="1.27" ry="1.37"/><ellipse class="cls-3" cx="45.06" cy="14.19" rx="2.49" ry="2.69"/><ellipse class="cls-3" cx="17.07" cy="31.1" rx="2.49" ry="2.69"/><path class="cls-4" d="M32.61,75.08c-5,4.5-12.48,3.09-15.71-3a1.15,1.15,0,0,0-1.24-.72c-6.3.17-11.37-6.13-10.35-12.83a1.26,1.26,0,0,0-.57-1.46,11.67,11.67,0,0,1-2-16.93,1.19,1.19,0,0,0,.17-1.6A11.23,11.23,0,0,1,1.8,32.91c.05-1,.59-1.68,1.37-1.67s1.33.68,1.29,1.7a9.46,9.46,0,0,0,1.29,5.19,2.41,2.41,0,0,1-.42,3.27A8.74,8.74,0,0,0,7,55.19,2.39,2.39,0,0,1,8.08,58.1c-1.18,5.81,2.74,10.74,8.25,10.35A2.55,2.55,0,0,1,19,70.21C21.27,75,27,76.35,30.77,73M60.23,23.12a8.36,8.36,0,0,0,5.61-7.68C66,9.35,60.5,5.14,55.22,7.37c-1.56.65-2.37.44-3.27-.84-3.4-4.87-9.36-4.87-12.77,0a2.15,2.15,0,0,1-3,.92,7.4,7.4,0,0,0-2.71-.69C29.24,6.66,26,9.69,25.34,14a8.41,8.41,0,0,0,5.47,9.08l-1.88,2.48c-.1-.34-.41-.34-.62-.47A11.08,11.08,0,0,1,22.63,15c0-.75-.2-1-.84-1.08-4.85-.7-9,3.14-9,8.39,0,1.93-.47,2.59-2.18,3A7.85,7.85,0,0,0,6.9,27.42c-.77.76-1.56.79-2.11.14A1.58,1.58,0,0,1,5.1,25.3a9.65,9.65,0,0,1,4.38-2.61c.53-.13.67-.36.69-.94.22-6.85,6.11-11.87,12.38-10.56.49.1.71,0,.92-.51C25.8,5.1,31.14,2.6,36.53,4.54a.63.63,0,0,0,.88-.25c4.46-5.71,11.87-5.72,16.29,0a.69.69,0,0,0,1,.25c5.26-1.94,10.71.62,13,6.13.2.49.38.66.91.55C74.92,9.9,80.71,14.85,81,21.82c0,.57.2.72.66.86,6.57,2,9.63,9.61,6.48,16.1a.89.89,0,0,0,.15,1.2,11.27,11.27,0,0,1,2.69,5.62c0,.15,0,.33.18.38v3.64c-.31.14-.24.49-.29.74a10.88,10.88,0,0,1-4.56,6.81,1,1,0,0,0-.47,1.15c.94,7.25-3.84,13.1-10.66,13-.57,0-.68.36-.88.73-3.37,6.22-11,7.54-16,2.76A8.88,8.88,0,0,1,56.74,73l3.13-.47c.35.31.59.55.84.75,3.88,3,9.23,1.61,11.43-3.05a2.55,2.55,0,0,1,2.66-1.76c5.51.39,9.43-4.54,8.26-10.34a2.48,2.48,0,0,1,1.25-3,8.65,8.65,0,0,0,1.56-13.59A2.57,2.57,0,0,1,85.46,38c2.84-5.2.44-11.28-5-12.66-1.67-.42-2.17-1.09-2.16-2.93,0-5.29-4-9.1-8.9-8.46-.64.08-.92.28-.91,1.1a11.34,11.34,0,0,1-3.45,8.4,11.17,11.17,0,0,1-2.95,2"/><path class="cls-5" d="M116.65,57.77,121,52.09l9-11.94c1.46-1.94,2.9-3.89,4.39-5.8.4-.52.74-1.42,1.55-1s.46,1.19.46,1.84q0,18.87,0,37.74c0,.26,0,.53,0,.79,0,.56-.11,1.16-.71,1.17s-.76-.64-.77-1.25V36.7c-.46-.22-.56.18-.72.39q-4.68,6.13-9.35,12.29c-2.41,3.17-4.81,6.36-7.24,9.52-1,1.23-1.12,1.24-2.06,0-3-3.92-6-7.87-9-11.81q-3.51-4.65-7-9.29a4.48,4.48,0,0,0-.48-.58c-.43-.38-.71-.29-.78.29a11.33,11.33,0,0,0,0,1.43V72.55c0,.48,0,1,0,1.43s-.22.85-.67.88-.72-.41-.78-.92a7.09,7.09,0,0,1,0-.8V34.93c0-.27,0-.53,0-.8a.89.89,0,0,1,.5-.87.76.76,0,0,1,.89.31c.65.83,1.3,1.67,1.94,2.52l15.44,20.4C115.87,56.88,116.21,57.25,116.65,57.77Z"/><path class="cls-6" d="M338.61,74a.82.82,0,0,1-.52.89.56.56,0,0,1-.72-.34,15.68,15.68,0,0,1-.69-1.56c-1.16-3.06-2.34-6.11-3.44-9.2a1.71,1.71,0,0,0-1.89-1.37q-8.69.08-17.37,0a1.75,1.75,0,0,0-1.9,1.38c-1.15,3.18-2.37,6.33-3.57,9.48a9.18,9.18,0,0,1-.56,1.28.56.56,0,0,1-.85.28.86.86,0,0,1-.39-.93,4.63,4.63,0,0,1,.26-.74Q314.23,54,321.52,34.81c.24-.64.32-1.63,1.13-1.64s.88,1,1.12,1.63q4.75,12.45,9.48,24.92,2.52,6.63,5,13.26C338.41,73.32,338.51,73.68,338.61,74ZM313.23,60.71c2.45.32,17.66.21,18.8-.13l-9.19-24.21h-.37Z"/><path class="cls-6" d="M239.59,73.9c0,.53-.11.86-.47,1a.61.61,0,0,1-.81-.43c-.49-1.2-1-2.41-1.42-3.62-.9-2.38-1.83-4.75-2.67-7.16a1.63,1.63,0,0,0-1.8-1.3q-8.74.09-17.49,0c-1,0-1.5.42-1.86,1.42-1.2,3.27-2.46,6.51-3.69,9.76a10,10,0,0,1-.42,1,.57.57,0,0,1-.73.33.74.74,0,0,1-.49-.85,4.76,4.76,0,0,1,.23-.9l7.53-19.81,7-18.35A8.12,8.12,0,0,1,223,33.7c.37-.67,1-.67,1.35,0a5.54,5.54,0,0,1,.36.86L238,69.64c.43,1.12.88,2.22,1.3,3.34C239.42,73.31,239.52,73.67,239.59,73.9Zm-15.93-38c-3.19,8.5-6.37,16.62-9.4,24.88,3,.32,17.68.19,18.77-.17C230,52.44,226.86,44.32,223.66,35.87Z"/><path class="cls-6" d="M254.85,75c-3.8-.19-7.22-1.37-9.76-4.8a8.74,8.74,0,0,1-1.77-4.74,5,5,0,0,1,0-1,.62.62,0,0,1,.54-.62.67.67,0,0,1,.69.44,2,2,0,0,1,.12.61,8.3,8.3,0,0,0,3.2,6,11.47,11.47,0,0,0,14.17-.23,8,8,0,0,0-.39-12.57,22,22,0,0,0-5-2.51c-2.28-1-4.58-1.92-6.86-2.93a10.56,10.56,0,0,1-5.61-5.26,9.4,9.4,0,0,1,1.18-10,11.6,11.6,0,0,1,6.42-4,12.48,12.48,0,0,1,9.83,1.6,9.86,9.86,0,0,1,4.69,7,7.47,7.47,0,0,1,.08,1.42.7.7,0,0,1-.61.75.77.77,0,0,1-.76-.59,1.4,1.4,0,0,1-.1-.46,7.78,7.78,0,0,0-4.23-6.79,11,11,0,0,0-12.61.61,7.92,7.92,0,0,0-.68,12.42,13.61,13.61,0,0,0,3.86,2.27c2.82,1.18,5.64,2.36,8.44,3.59a10.67,10.67,0,0,1,5.89,5.58,9.33,9.33,0,0,1-1.24,9.72,11.63,11.63,0,0,1-7.11,4.17A8.78,8.78,0,0,1,254.85,75Z"/><path class="cls-6" d="M170.11,54c-.21-9.36,5.92-19,15.72-20.68,5.76-1,10.89.74,15.3,5.08.24.25.47.52.69.79a.8.8,0,0,1,.08,1,.67.67,0,0,1-1,.11,6.21,6.21,0,0,1-.64-.62c-5.09-5-10.92-6.36-17.23-3.88s-10.14,7.8-11.25,15.33c-1.44,9.72,4.27,20.25,14.49,22a15.24,15.24,0,0,0,13.55-4.37l1-.91c.36-.34.76-.55,1.11-.07s.08.88-.23,1.25A15.79,15.79,0,0,1,198,72.19c-11.4,7.18-25.61-.33-27.7-15.15C170.13,56.05,170.16,55,170.11,54Z"/><path class="cls-7" d="M299,54.7V72.94a9.66,9.66,0,0,1-.08,1.42.49.49,0,0,1-.53.41.48.48,0,0,1-.52-.42,11.8,11.8,0,0,1-.08-1.57q0-17.78,0-35.53v-.79c0-1.73,0-1.74-1.54-1.74h-12a2.78,2.78,0,0,1-1.25-.11.75.75,0,0,1-.51-.84.64.64,0,0,1,.61-.56c.28,0,.56,0,.84,0h28.8c.29,0,.57,0,.85,0a.62.62,0,0,1,.65.67.71.71,0,0,1-.57.78,7.73,7.73,0,0,1-1.27.07h-12c-1.37,0-1.38,0-1.38,1.59Q299,45.51,299,54.7Z"/><path class="cls-7" d="M145,54.16V72.85c0,.43,0,.85,0,1.27a.61.61,0,0,1-.5.65c-.4.07-.61-.17-.73-.57a5.5,5.5,0,0,1-.11-1.57V42.85c0-2.59,0-5.17,0-7.76,0-.69-.22-1.58.67-1.84.51-.15.68.31.68,1.74Z"/><path class="cls-7" d="M275,54v19.8c0,.5,0,1-.63,1s-.64-.54-.7-1,0-.85,0-1.27V35.43a4.76,4.76,0,0,1,.14-1.72.6.6,0,0,1,1.19.15c0,.42,0,.84,0,1.26Q275,44.55,275,54Z"/></g></g></svg>