<svg xmlns="http://www.w3.org/2000/svg" viewBox="0 0 241.82 41.93"><defs><style>.cls-1{fill:#fff;}</style></defs><g id="Capa_2" data-name="Capa 2"><g id="Capa_1-2" data-name="Capa 1"><path class="cls-1" d="M19.87,24.69,24.2,19,33.25,7.07c1.46-1.93,2.9-3.88,4.38-5.79.41-.52.74-1.42,1.56-1s.46,1.2.46,1.84q0,18.87,0,37.75c0,.26,0,.52,0,.79,0,.55-.11,1.15-.7,1.16s-.77-.63-.77-1.25c0-.37,0-.74,0-1.11V3.62c-.46-.21-.56.18-.72.39Q32.77,10.15,28.1,16.3c-2.41,3.18-4.8,6.36-7.23,9.52-.95,1.24-1.12,1.24-2.07,0q-4.5-5.89-9-11.82-3.52-4.63-7-9.29a5.43,5.43,0,0,0-.49-.57c-.42-.39-.71-.29-.78.29a13.46,13.46,0,0,0,0,1.42V39.48c0,.48,0,1,0,1.43s-.22.85-.67.88-.72-.42-.78-.93a7,7,0,0,1,0-.79V1.85c0-.26,0-.53,0-.79A.86.86,0,0,1,.52.19.73.73,0,0,1,1.4.5C2.06,1.33,2.7,2.17,3.34,3l15.45,20.4C19.09,23.81,19.43,24.17,19.87,24.69Z"/><path class="cls-1" d="M241.82,40.9a.82.82,0,0,1-.52.9.57.57,0,0,1-.72-.34,16.71,16.71,0,0,1-.68-1.56c-1.16-3.06-2.34-6.12-3.44-9.2a1.73,1.73,0,0,0-1.9-1.38c-5.79.05-11.58.06-17.37,0a1.72,1.72,0,0,0-1.89,1.38c-1.15,3.18-2.38,6.32-3.58,9.48a10.49,10.49,0,0,1-.55,1.28.56.56,0,0,1-.85.27.82.82,0,0,1-.39-.93,4.84,4.84,0,0,1,.25-.73q7.27-19.17,14.56-38.34c.24-.64.32-1.63,1.13-1.63s.87,1,1.12,1.62q4.74,12.46,9.47,24.92l5,13.27C241.63,40.25,241.73,40.6,241.82,40.9ZM216.45,27.64c2.44.32,17.66.21,18.8-.14L226.06,3.3h-.38Z"/><path class="cls-1" d="M142.81,40.83c0,.53-.12.86-.47,1a.62.62,0,0,1-.82-.42c-.49-1.2-1-2.41-1.42-3.63-.9-2.38-1.83-4.75-2.67-7.15a1.62,1.62,0,0,0-1.79-1.3c-5.83.05-11.66.06-17.49,0-1,0-1.5.41-1.87,1.42-1.19,3.27-2.45,6.51-3.69,9.76a8.8,8.8,0,0,1-.42,1,.58.58,0,0,1-.72.33A.74.74,0,0,1,111,41a3.4,3.4,0,0,1,.23-.9q3.75-9.91,7.52-19.81l7-18.35a10.71,10.71,0,0,1,.53-1.3c.37-.66,1-.66,1.35,0a5,5,0,0,1,.37.85l13.29,35.12c.42,1.11.87,2.22,1.3,3.33C142.64,40.24,142.73,40.59,142.81,40.83Zm-15.94-38c-3.19,8.51-6.37,16.62-9.4,24.88,3,.32,17.69.19,18.78-.17C133.16,19.37,130.08,11.24,126.87,2.79Z"/><path class="cls-1" d="M158.07,41.92c-3.81-.19-7.23-1.37-9.76-4.8a8.62,8.62,0,0,1-1.77-4.74,6,6,0,0,1,0-1,.62.62,0,0,1,.55-.62.65.65,0,0,1,.69.43,1.83,1.83,0,0,1,.11.61,8.35,8.35,0,0,0,3.2,6.06,11.5,11.5,0,0,0,14.18-.24,7.94,7.94,0,0,0-.4-12.56,21.76,21.76,0,0,0-5-2.51c-2.27-1-4.58-1.92-6.85-2.93a10.54,10.54,0,0,1-5.61-5.27,9.38,9.38,0,0,1,1.17-10,11.62,11.62,0,0,1,6.43-4A12.45,12.45,0,0,1,164.83,2a9.87,9.87,0,0,1,4.69,7,7.37,7.37,0,0,1,.09,1.41.7.7,0,0,1-.61.75c-.37,0-.62-.22-.77-.58a1.5,1.5,0,0,1-.09-.46,7.82,7.82,0,0,0-4.24-6.8,11,11,0,0,0-12.61.62,7.92,7.92,0,0,0-.67,12.42,13.8,13.8,0,0,0,3.85,2.27c2.82,1.17,5.64,2.35,8.44,3.59a10.68,10.68,0,0,1,5.9,5.58,9.3,9.3,0,0,1-1.25,9.71,11.6,11.6,0,0,1-7.11,4.18A8.66,8.66,0,0,1,158.07,41.92Z"/><path class="cls-1" d="M73.33,21C73.11,11.6,79.24,2,89.05.28c5.75-1,10.89.74,15.29,5.08a7.51,7.51,0,0,1,.69.79.79.79,0,0,1,.09,1,.67.67,0,0,1-1,.1,4.59,4.59,0,0,1-.64-.61c-5.09-5-10.93-6.36-17.24-3.88S76.09,10.57,75,18.09c-1.43,9.72,4.27,20.26,14.5,22A15.29,15.29,0,0,0,103,35.68l1-.92c.35-.33.76-.54,1.11-.07s.08.89-.23,1.25a16.08,16.08,0,0,1-3.68,3.18C89.78,46.29,75.58,38.79,73.49,24,73.35,23,73.38,22,73.33,21Z"/><path class="cls-1" d="M202.2,21.63V39.87a11,11,0,0,1-.08,1.41.49.49,0,0,1-.54.41.48.48,0,0,1-.52-.41A13.82,13.82,0,0,1,201,39.7V3.39c0-1.74,0-1.74-1.54-1.74h-12a2.84,2.84,0,0,1-1.26-.11.74.74,0,0,1-.5-.84.61.61,0,0,1,.6-.55c.28,0,.56,0,.85,0h28.8c.28,0,.56,0,.85,0a.61.61,0,0,1,.64.66.69.69,0,0,1-.57.78,7.55,7.55,0,0,1-1.26.07h-12c-1.38,0-1.39,0-1.39,1.59Z"/><path class="cls-1" d="M48.25,21.09V39.78c0,.42,0,.85,0,1.27a.6.6,0,0,1-.5.65c-.39.06-.61-.17-.73-.57a5.49,5.49,0,0,1-.1-1.57q0-14.9,0-29.78c0-2.59,0-5.18,0-7.76,0-.69-.22-1.58.68-1.85.5-.14.67.31.67,1.75Z"/><path class="cls-1" d="M178.18,20.9V40.7c0,.5,0,1-.64,1s-.64-.54-.69-1a10.55,10.55,0,0,1,0-1.26V2.36A5,5,0,0,1,177,.64a.61.61,0,0,1,.66-.47c.33,0,.5.27.53.62s0,.84,0,1.26Z"/></g></g></svg>